<?xml version="1.0" encoding="UTF-8"?>
<svg id="Layer_1" data-name="Layer 1" xmlns="http://www.w3.org/2000/svg" viewBox="0 0 839 165.93">
  <defs>
    <style>
      .cls-1 {
        fill: #121212;
        stroke-width: 0px;
      }
    </style>
  </defs>
  <rect class="cls-1" x="701.48" y="58.14" width="74.83" height="74.83"/>
  <polygon class="cls-1" points="62.69 32.97 62.69 132.97 82.69 132.97 82.69 95.72 117.69 95.72 117.69 77.72 82.69 77.72 82.69 50.97 122.69 50.97 122.69 32.97 82.69 32.97 62.69 32.97"/>
  <path class="cls-1" d="M200.61,59.01c-4.28-2.24-8.92-3.37-13.91-3.37h-2.74c-4.99,0-9.62,1.12-13.91,3.37-4.28,2.25-7.69,5.28-10.23,9.1-2.54,3.83-3.8,7.98-3.8,12.47v27.44c0,4.49,1.27,8.65,3.8,12.47,2.54,3.83,5.94,6.86,10.23,9.1,4.28,2.24,8.92,3.37,13.91,3.37h2.74c4.99,0,9.62-1.12,13.91-3.37,4.28-2.25,7.69-5.28,10.23-9.1,2.54-3.82,3.8-7.98,3.8-12.47v-27.44c0-4.49-1.27-8.65-3.8-12.47-2.54-3.82-5.95-6.86-10.23-9.1ZM194.68,108.02c0,2.24-.69,3.97-2.06,5.18-1.37,1.21-3.35,1.81-5.92,1.81h-2.74c-2.58,0-4.55-.6-5.92-1.81-1.37-1.2-2.06-2.93-2.06-5.18v-27.44c0-2.24.69-3.97,2.06-5.18,1.37-1.2,3.35-1.81,5.92-1.81h2.74c2.58,0,4.55.6,5.92,1.81,1.37,1.21,2.06,2.93,2.06,5.18v27.44Z"/>
  <path class="cls-1" d="M279.77,65c-.71,1.12-1.33,2.33-1.87,3.62v-10.48h-26.19v17.96h6.24v38.91h-9.98v17.96h42.4v-17.96h-12.47v-31.93c0-1.5.35-2.76,1.06-3.8.71-1.04,1.77-1.83,3.18-2.37,1.41-.54,3.08-.81,4.99-.81h15.71v-17.96h-9.48c-6.15,0-10.69,2.29-13.59,6.86Z"/>
  <path class="cls-1" d="M380.76,59.01c-4.28-2.24-8.92-3.37-13.91-3.37h-2.74c-4.99,0-9.62,1.12-13.91,3.37-4.28,2.25-7.69,5.28-10.23,9.1-2.54,3.83-3.8,7.98-3.8,12.47v27.44c0,4.49,1.27,8.65,3.8,12.47,2.54,3.83,5.94,6.86,10.23,9.1,4.28,2.24,8.92,3.37,13.91,3.37h2.74c4.99,0,9.62-1.12,13.91-3.37,4.28-2.25,7.69-5.28,10.23-9.1,2.54-3.82,3.8-7.98,3.8-12.47v-27.44c0-4.49-1.27-8.65-3.8-12.47-2.54-3.82-5.95-6.86-10.23-9.1ZM374.84,108.02c0,2.24-.69,3.97-2.06,5.18-1.37,1.21-3.35,1.81-5.92,1.81h-2.74c-2.58,0-4.55-.6-5.92-1.81-1.37-1.2-2.06-2.93-2.06-5.18v-27.44c0-2.24.69-3.97,2.06-5.18,1.37-1.2,3.35-1.81,5.92-1.81h2.74c2.58,0,4.55.6,5.92,1.81,1.37,1.21,2.06,2.93,2.06,5.18v27.44Z"/>
  <path class="cls-1" d="M455.88,36.56c-4.28,2.24-7.69,5.28-10.23,9.1-2.54,3.83-3.8,7.98-3.8,12.47h-13.72v17.96h13.72v38.91h-13.72v17.96h49.89v-17.96h-16.21v-38.91h26.19v-17.96h-26.19c0-2.24.69-3.97,2.06-5.18,1.37-1.2,3.35-1.81,5.92-1.81h18.21v-17.96h-18.21c-4.99,0-9.62,1.12-13.91,3.37Z"/>
  <path class="cls-1" d="M565.91,59.01c-4.28-2.24-8.92-3.37-13.91-3.37h-2.74c-4.99,0-9.62,1.12-13.91,3.37-4.28,2.25-7.69,5.28-10.23,9.1-2.54,3.83-3.8,7.98-3.8,12.47v27.44c0,4.49,1.27,8.65,3.8,12.47,2.54,3.83,5.94,6.86,10.23,9.1,4.28,2.24,8.92,3.37,13.91,3.37h2.74c4.99,0,9.62-1.12,13.91-3.37,4.28-2.25,7.69-5.28,10.23-9.1,2.54-3.82,3.8-7.98,3.8-12.47v-27.44c0-4.49-1.27-8.65-3.8-12.47-2.54-3.82-5.95-6.86-10.23-9.1ZM559.99,108.02c0,2.24-.69,3.97-2.06,5.18-1.37,1.21-3.35,1.81-5.92,1.81h-2.74c-2.58,0-4.55-.6-5.92-1.81-1.37-1.2-2.06-2.93-2.06-5.18v-27.44c0-2.24.69-3.97,2.06-5.18,1.37-1.2,3.35-1.81,5.92-1.81h2.74c2.58,0,4.55.6,5.92,1.81,1.37,1.21,2.06,2.93,2.06,5.18v27.44Z"/>
  <path class="cls-1" d="M644.27,79.28c.71-1.04,1.77-1.83,3.18-2.37,1.41-.54,3.08-.81,4.99-.81h15.71v-17.96h-9.48c-6.15,0-10.69,2.29-13.59,6.86-.71,1.12-1.33,2.33-1.87,3.62v-10.48h-26.19v17.96h6.24v38.91h-9.98v17.96h42.4v-17.96h-12.47v-31.93c0-1.5.35-2.76,1.06-3.8Z"/>
</svg>